# xmcd
#
# Track frame offsets:
#	150
#	22062
#	37742
#	63312
#	75682
#	89332
#	104202
#	119700
#	133202
#	145392
#
# Disc length: 2098
#
# Revision: 2
# Processed by: cddbd v1.5.1PL0 Copyright (c) Steve Scherf et al.
# Submitted via: CDex 1.40Beta8
# Normalized: r0:TSWAP
#
DISCID=9308300a
DTITLE=Various Artist - Shades of Blues
DYEAR=1998
DGENRE=Blues
TTITLE0=John Mayall - Baby What You Want Me To Do
TTITLE1=Eddie "Clean Head" Vinson - I'm The Midnight Creeper
TTITLE2=B.B. King - Guess Who
TTITLE3=John Lee Hooker - Crawlin' Black Spider
TTITLE4=Bo Diddley - Somebody's Cryin'
TTITLE5=Charles Brown - Baby Let Me Hold Your Hand
TTITLE6=Dinah Washington - Trouble Trouble
TTITLE7=Eddie "Clean Head" Vinson - Cherry Red
TTITLE8=Elmore James - Mean Mistreatin' Mama
TTITLE9=Bo Diddley - Walkin' And Talkin'
EXTD=YEAR: 1998 ID3G: 0
EXTT0=
EXTT1=
EXTT2=
EXTT3=
EXTT4=
EXTT5=
EXTT6=
EXTT7=
EXTT8=
EXTT9=
PLAYORDER=
